<?xml version="1.0" encoding="utf-8"?>
<!-- Generator: Adobe Illustrator 27.0.0, SVG Export Plug-In . SVG Version: 6.00 Build 0)  -->
<svg version="1.1" id="Layer_1" xmlns="http://www.w3.org/2000/svg" xmlns:xlink="http://www.w3.org/1999/xlink" x="0px" y="0px"
	 viewBox="0 0 2396.9 800" style="enable-background:new 0 0 2396.9 800;" xml:space="preserve">
<g>
	<g>
		<path d="M1037.6,555.7c-8.9,0-17.9-3.6-24.4-10.7L890.8,413.3c-6-6.5-9.2-15.1-8.9-24c0.3-8.9,4.2-17.2,10.7-23.2l122.3-112.9
			c13.5-12.5,34.6-11.6,47.1,1.9c12.5,13.5,11.6,34.6-1.9,47.1l-97.8,90.3l99.6,107.3c12.5,13.5,11.7,34.6-1.7,47.1
			C1053.8,552.7,1045.7,555.7,1037.6,555.7z"/>
	</g>
</g>
<g>
	<g>
		<path d="M1343.4,555.7c-8.1,0-16.3-2.9-22.7-8.9c-13.5-12.5-14.3-33.6-1.7-47.1l99.6-107.3l-97.8-90.3
			c-13.5-12.5-14.4-33.6-1.9-47.1c12.5-13.5,33.6-14.4,47.1-1.9l122.3,112.9c6.5,6,10.4,14.4,10.7,23.2s-2.9,17.5-8.9,24L1367.8,545
			C1361.3,552.1,1352.4,555.7,1343.4,555.7z"/>
	</g>
</g>
<g>
	<g>
		<path d="M1129.3,678c-2.7,0-5.4-0.3-8.1-1c-17.9-4.5-28.7-22.6-24.3-40.4l122.3-489.4c4.5-17.9,22.6-28.7,40.4-24.3
			c17.9,4.5,28.7,22.6,24.3,40.4l-122.3,489.4C1157.9,667.9,1144.3,678,1129.3,678z"/>
	</g>
</g>
<g>
	<g>
		<path d="M1577.4,430.9c-18.3,0-33.2-14.7-33.3-33c-0.2-18.4,14.6-33.5,33-33.6l549.7-4.9c0.1,0,0.2,0,0.3,0
			c18.3,0,33.2,14.7,33.3,33c0.2,18.4-14.6,33.5-33,33.6l-549.7,4.9C1577.6,430.9,1577.5,430.9,1577.4,430.9z"/>
	</g>
</g>
<g>
	<g>
		<path d="M248.2,433.3c-18.3,0-33.2-14.7-33.3-33c-0.2-18.4,14.6-33.5,33-33.6l549.7-4.9c0.1,0,0.2,0,0.3,0
			c18.3,0,33.2,14.7,33.3,33c0.2,18.4-14.6,33.5-33,33.6l-549.7,4.9C248.4,433.3,248.3,433.3,248.2,433.3z"/>
	</g>
</g>
</svg>
